<svg viewBox="0 0 48 48" width="48" height="48" fill="none" xmlns="http://www.w3.org/2000/svg">
  <defs>
    <linearGradient id="logoGradient" x1="0%" y1="0%" x2="100%" y2="100%">
      <stop offset="0%" style="stop-color: #6366f1; stop-opacity: 1;" />
      <stop offset="100%" style="stop-color: #8b5cf6; stop-opacity: 1;" />
    </linearGradient>
  </defs>
  <circle cx="24" cy="24" r="22" stroke="url(#logoGradient)" stroke-width="2" fill="none" />
  <path d="M 24 8 L 24 14 M 24 14 L 18 18 M 24 14 L 30 18 M 18 18 L 18 24 M 30 18 L 30 24 M 18 24 L 12 28 M 18 24 L 24 28 M 30 24 L 36 28 M 30 24 L 24 28 M 24 28 L 24 34 M 12 28 L 12 34 M 36 28 L 36 34" stroke="url(#logoGradient)" stroke-width="2" stroke-linecap="round" />
  <circle cx="24" cy="8" r="2" fill="url(#logoGradient)" />
  <circle cx="24" cy="14" r="2.5" fill="url(#logoGradient)" />
  <circle cx="18" cy="18" r="2" fill="url(#logoGradient)" />
  <circle cx="30" cy="18" r="2" fill="url(#logoGradient)" />
  <circle cx="18" cy="24" r="2.5" fill="url(#logoGradient)" />
  <circle cx="30" cy="24" r="2.5" fill="url(#logoGradient)" />
  <circle cx="12" cy="28" r="2" fill="url(#logoGradient)" />
  <circle cx="24" cy="28" r="2.5" fill="url(#logoGradient)" />
  <circle cx="36" cy="28" r="2" fill="url(#logoGradient)" />
  <circle cx="12" cy="34" r="2" fill="url(#logoGradient)" />
  <circle cx="24" cy="34" r="2" fill="url(#logoGradient)" />
  <circle cx="36" cy="34" r="2" fill="url(#logoGradient)" />
</svg>
